<svg width="534" height="64" viewBox="0 0 534 64" fill="none" xmlns="http://www.w3.org/2000/svg">
<path d="M0 62.8486C0 61.8251 0.127978 61.0575 0.383935 60.5457C0.639892 59.97 1.02383 59.5862 1.53574 59.3943L7.96666 57.6672L6.5269 59.2024V5.08545L8.06264 6.71664L0 4.89355C0 3.998 0.127978 3.29435 0.383935 2.78261C0.639892 2.20689 1.08782 1.72714 1.72771 1.34333H26.0116C31.6427 1.34333 36.0579 2.52674 39.2574 4.89355C42.4568 7.26037 44.0566 10.4908 44.0566 14.5847C44.0566 17.2074 43.4167 19.6062 42.1369 21.7811C40.8571 23.956 39.0974 25.7151 36.8578 27.0585C34.6182 28.4018 32.0906 29.2014 29.2751 29.4573L29.659 28.7856C32.8585 28.9135 35.738 29.7131 38.2975 31.1844C40.8571 32.6557 42.8728 34.5747 44.3445 36.9415C45.8803 39.3083 46.6481 41.931 46.6481 44.8096C46.6481 48.3918 45.7843 51.5582 44.0566 54.3088C42.3929 56.9955 40.0253 59.1064 36.9538 60.6417C33.8823 62.1129 30.2669 62.8486 26.1076 62.8486H0ZM24.5719 58.7226C28.9871 58.7226 32.3465 57.6032 34.6502 55.3643C37.0178 53.0615 38.2016 49.7671 38.2016 45.4813C38.2016 40.8756 36.9538 37.4213 34.4582 35.1184C32.0266 32.7516 28.4432 31.5682 23.708 31.5682H13.4377L14.3976 30.7046V57.955L13.4377 56.8036C14.9095 57.3793 16.6692 57.8591 18.7168 58.2429C20.8285 58.5627 22.7802 58.7226 24.5719 58.7226ZM14.3976 28.2099L13.1498 26.7706C13.4057 26.8985 14.1096 27.0265 15.2614 27.1544C16.4132 27.2184 17.725 27.2824 19.1968 27.3463C20.7325 27.3463 22.1403 27.3463 23.4201 27.3463C27.3874 27.3463 30.4909 26.4188 32.7305 24.5637C34.9701 22.7086 36.0899 20.022 36.0899 16.5037C36.0899 12.9215 34.9701 10.2029 32.7305 8.34783C30.4909 6.42878 27.2914 5.46926 23.1321 5.46926C21.5964 5.46926 19.9966 5.5972 18.3329 5.85307C16.7332 6.10894 15.1015 6.49275 13.4377 7.0045L14.3976 6.14093V28.2099Z" fill="#222222"/>
<path d="M59.24 62.8486C59.24 61.8251 59.368 61.0255 59.6239 60.4498C59.9439 59.8741 60.3278 59.5222 60.7758 59.3943L67.2067 57.6672L65.7669 59.2024V5.08545L67.1107 6.71664L59.24 4.89355C59.24 3.998 59.368 3.29435 59.6239 2.78261C59.8799 2.27087 60.3598 1.79111 61.0637 1.34333H101.473V13.4333C100.449 13.4333 99.6492 13.3053 99.0733 13.0495C98.4974 12.7936 98.1135 12.3778 97.9215 11.8021L95.5219 4.41379L96.8657 5.27736L72.5818 6.62069L73.6376 5.37331V30.2249L72.6777 29.5532H92.7384L91.4906 30.2249L92.9303 23.5082C93.5702 23.5082 94.2101 23.6042 94.85 23.7961C95.4899 23.988 96.0338 24.3718 96.4817 24.9475V38.4768C96.0338 39.0525 95.4899 39.4363 94.85 39.6282C94.2101 39.7561 93.5702 39.8201 92.9303 39.8201L91.3946 32.9115L92.7384 33.7751H72.6777L73.6376 32.9115V58.2429L72.6777 57.1874L99.4572 58.9145L98.2094 60.1619L100.801 48.6477C101.697 48.6477 102.401 48.7756 102.913 49.0315C103.489 49.2874 104 49.6712 104.448 50.1829V62.8486H59.24Z" fill="#222222"/>
<path d="M110.65 62.8486C110.65 61.8251 110.778 61.0255 111.034 60.4498C111.354 59.8741 111.738 59.5222 112.186 59.3943L117.849 57.6672L115.449 60.1619L136.757 1.82309C136.949 1.31134 137.269 0.927536 137.717 0.671667C138.229 0.415794 138.741 0.255873 139.253 0.191902C139.829 0.0639672 140.341 0 140.789 0C141.173 0 141.557 0.0319836 141.941 0.0959508C142.389 0.0959508 142.836 0.15992 143.284 0.287858L166.512 59.8741L163.441 57.4753L171.984 59.2983C171.984 60.1299 171.856 60.8016 171.6 61.3133C171.344 61.8251 170.864 62.3368 170.16 62.8486H150.867C150.867 61.8251 150.995 61.0255 151.251 60.4498C151.571 59.8741 151.955 59.5222 152.403 59.3943L158.93 57.6672L158.066 59.5862L137.525 7.10045L139.541 6.90855L120.056 60.1619L119.768 57.4753L128.311 59.2983C128.311 60.1299 128.183 60.8016 127.927 61.3133C127.735 61.8251 127.223 62.3368 126.391 62.8486H110.65ZM125.239 42.1229L126.295 38.0929H151.539L152.787 42.1229H125.239Z" fill="#222222"/>
<path d="M204.89 64C199.259 64 194.3 62.7526 190.013 60.2579C185.725 57.6991 182.366 54.2129 179.934 49.7991C177.567 45.3213 176.383 40.1719 176.383 34.3508C176.383 29.4253 177.215 24.8836 178.879 20.7256C180.542 16.5677 182.846 12.9535 185.789 9.88306C188.733 6.74863 192.22 4.31784 196.252 2.59071C200.283 0.863568 204.634 0 209.305 0C212.569 0 215.704 0.415792 218.712 1.24738C221.719 2.01499 224.471 3.16642 226.966 4.70165L225.143 18.1349C224.119 18.1349 223.287 17.975 222.647 17.6552C222.007 17.3353 221.655 16.9515 221.591 16.5037L220.728 7.0045L222.263 9.4033C220.664 8.05997 218.488 7.0045 215.736 6.23688C212.985 5.4053 210.105 4.9895 207.098 4.9895C202.619 4.9895 198.715 6.07696 195.388 8.25188C192.06 10.3628 189.501 13.4013 187.709 17.3673C185.917 21.3333 185.022 26.035 185.022 31.4723C185.022 37.0375 185.917 41.899 187.709 46.057C189.565 50.2149 192.124 53.4453 195.388 55.7481C198.651 58.051 202.427 59.2024 206.714 59.2024C210.041 59.2024 213.145 58.5307 216.024 57.1874C218.968 55.8441 221.143 54.085 222.551 51.91L220.824 55.6522L221.975 42.5067C223.383 42.5067 224.407 42.6347 225.047 42.8906C225.687 43.1464 226.103 43.5302 226.295 44.042L226.87 56.5157C224.311 58.8186 221.047 60.6417 217.08 61.985C213.113 63.3283 209.049 64 204.89 64Z" fill="#222222"/>
<path d="M239.866 62.8486C239.866 61.8251 239.994 61.0255 240.25 60.4498C240.57 59.8741 240.954 59.5222 241.402 59.3943L247.832 57.6672L246.393 59.2024V5.08545L247.928 6.71664L239.866 4.89355C239.866 3.998 239.994 3.29435 240.25 2.78261C240.506 2.27087 240.986 1.79111 241.69 1.34333H260.982C260.982 2.36682 260.854 3.16642 260.598 3.74213C260.342 4.31784 259.958 4.66966 259.447 4.7976L252.632 6.52474L254.263 4.89355V30.4168L253.591 29.5532H286.13L285.458 30.4168V5.08545L286.994 6.71664L278.835 4.89355C278.835 3.998 278.963 3.29435 279.219 2.78261C279.475 2.27087 279.955 1.79111 280.659 1.34333H300.336C300.336 2.36682 300.208 3.16642 299.952 3.74213C299.696 4.31784 299.312 4.66966 298.8 4.7976L291.985 6.52474L293.329 4.89355V59.1064L291.889 57.4753L300.336 59.2983C300.336 60.1299 300.208 60.8016 299.952 61.3133C299.76 61.8251 299.28 62.3368 298.512 62.8486H278.835C278.835 61.8251 278.963 61.0255 279.219 60.4498C279.539 59.8741 279.923 59.5222 280.371 59.3943L286.898 57.6672L285.458 59.2024V32.9115L286.13 33.7751H253.591L254.263 32.9115V59.1064L252.536 57.4753L260.982 59.2983C260.982 60.1299 260.854 60.8016 260.598 61.3133C260.406 61.8251 259.958 62.3368 259.255 62.8486H239.866Z" fill="#222222"/>
<path d="M312.885 62.8486C312.885 61.8251 313.013 61.0255 313.269 60.4498C313.589 59.8741 313.973 59.5222 314.421 59.3943L320.851 57.6672L319.412 59.2024V5.08545L320.755 6.71664L312.885 4.89355C312.885 3.998 312.981 3.29435 313.173 2.78261C313.429 2.27087 313.877 1.79111 314.516 1.34333H342.064C346.735 1.34333 350.798 2.14293 354.254 3.74213C357.773 5.27736 360.685 7.38831 362.988 10.075C365.292 12.6977 367.02 15.7041 368.171 19.0945C369.323 22.4848 369.899 26.035 369.899 29.7451C369.899 33.6472 369.227 37.5812 367.883 41.5472C366.54 45.4493 364.588 48.9995 362.028 52.1979C359.469 55.3963 356.333 57.987 352.622 59.97C348.975 61.8891 344.783 62.8486 340.048 62.8486H312.885ZM339.568 58.5307C343.152 58.5307 346.287 57.8271 348.975 56.4198C351.662 54.9485 353.902 52.9975 355.694 50.5667C357.549 48.072 358.925 45.2574 359.821 42.1229C360.781 38.9885 361.261 35.7261 361.261 32.3358C361.261 27.5382 360.429 23.0925 358.765 18.9985C357.101 14.9045 354.638 11.6422 351.374 9.2114C348.111 6.71664 344.079 5.46926 339.28 5.46926C336.465 5.46926 333.937 5.62918 331.698 5.94902C329.458 6.26887 327.57 6.68466 326.035 7.1964L327.282 5.75712V58.2429L326.322 56.8995C328.178 57.4753 330.258 57.8911 332.561 58.1469C334.865 58.4028 337.201 58.5307 339.568 58.5307Z" fill="#222222"/>
<path d="M373.762 62.8486C373.762 61.8251 373.89 61.0255 374.146 60.4498C374.466 59.8741 374.85 59.5222 375.297 59.3943L380.961 57.6672L378.561 60.1619L399.869 1.82309C400.061 1.31134 400.381 0.927536 400.829 0.671667C401.341 0.415794 401.853 0.255873 402.365 0.191902C402.941 0.0639672 403.453 0 403.901 0C404.285 0 404.669 0.0319836 405.052 0.0959508C405.5 0.0959508 405.948 0.15992 406.396 0.287858L429.624 59.8741L426.553 57.4753L435.095 59.2983C435.095 60.1299 434.967 60.8016 434.711 61.3133C434.456 61.8251 433.976 62.3368 433.272 62.8486H413.979C413.979 61.8251 414.107 61.0255 414.363 60.4498C414.683 59.8741 415.067 59.5222 415.515 59.3943L422.042 57.6672L421.178 59.5862L400.637 7.10045L402.653 6.90855L383.168 60.1619L382.88 57.4753L391.423 59.2983C391.423 60.1299 391.295 60.8016 391.039 61.3133C390.847 61.8251 390.335 62.3368 389.503 62.8486H373.762ZM388.351 42.1229L389.407 38.0929H414.651L415.899 42.1229H388.351Z" fill="#222222"/>
<path d="M461.266 45.961L436.31 4.7976L439.094 6.71664L431.127 4.89355C431.127 3.998 431.255 3.29435 431.511 2.78261C431.767 2.27087 432.247 1.79111 432.951 1.34333H452.723C452.723 2.36682 452.595 3.16642 452.339 3.74213C452.084 4.31784 451.7 4.66966 451.188 4.7976L443.893 6.52474L445.141 4.31784L464.146 35.6942L461.266 35.982L477.391 4.70165L478.159 6.52474L470.288 4.89355C470.288 3.998 470.384 3.29435 470.576 2.78261C470.832 2.27087 471.312 1.79111 472.016 1.34333H488.621C488.621 2.36682 488.493 3.16642 488.237 3.74213C487.982 4.31784 487.598 4.66966 487.086 4.7976L480.847 6.33283L482.574 4.22189L461.266 45.961ZM449.748 62.8486C449.748 61.8251 449.876 61.0255 450.132 60.4498C450.452 59.8741 450.836 59.5222 451.284 59.3943L458.386 57.6672L456.851 59.8741V36.4618H464.721V59.3943L463.09 57.4753L472.112 59.2983C472.112 60.1299 472.016 60.8016 471.824 61.3133C471.632 61.8251 471.184 62.3368 470.48 62.8486H449.748Z" fill="#222222"/>
<path d="M513.843 64C511.924 64 509.748 63.8081 507.316 63.4243C504.885 63.0405 502.453 62.4967 500.022 61.7931C497.654 61.0255 495.478 60.1619 493.495 59.2024L495.223 46.2489C495.734 45.3533 496.566 44.9055 497.718 44.9055C498.038 44.9055 498.358 44.9375 498.678 45.0015C499.062 45.0015 499.35 45.0655 499.542 45.1934L500.214 58.5307L498.486 54.7886C499.766 55.7481 501.301 56.6117 503.093 57.3793C504.885 58.083 506.709 58.6587 508.564 59.1064C510.484 59.5542 512.308 59.7781 514.035 59.7781C517.747 59.7781 520.754 58.6907 523.058 56.5157C525.425 54.3408 526.609 51.5582 526.609 48.1679C526.609 46.2489 526.193 44.5857 525.361 43.1784C524.594 41.7711 523.154 40.3958 521.042 39.0525C518.995 37.7091 516.051 36.2059 512.212 34.5427C508.18 32.6877 504.981 30.8966 502.613 29.1694C500.246 27.3783 498.55 25.4273 497.526 23.3163C496.502 21.2054 495.99 18.7746 495.99 16.024C495.99 11.1624 497.622 7.29235 500.886 4.41379C504.213 1.47126 508.596 0 514.035 0C516.659 0 519.474 0.351823 522.482 1.05547C525.489 1.75912 528.433 2.81459 531.312 4.22189L529.873 16.6957C528.849 16.6957 528.017 16.5357 527.377 16.2159C526.801 15.896 526.481 15.5122 526.417 15.0645L525.169 5.46926L527.185 9.01949C525.777 7.54822 523.858 6.36482 521.426 5.46926C519.058 4.57371 516.563 4.12594 513.939 4.12594C510.42 4.12594 507.636 5.02149 505.589 6.81259C503.541 8.60369 502.517 11.0025 502.517 14.009C502.517 15.8641 502.933 17.5272 503.765 18.9985C504.597 20.4058 506.069 21.7811 508.18 23.1244C510.292 24.4678 513.268 25.971 517.107 27.6342C521.33 29.4893 524.658 31.3123 527.089 33.1034C529.585 34.8946 531.344 36.8456 532.368 38.9565C533.456 41.0035 534 43.4343 534 46.2489C534 49.7671 533.168 52.8696 531.504 55.5562C529.841 58.2429 527.505 60.3218 524.498 61.7931C521.49 63.2644 517.939 64 513.843 64Z" fill="#222222"/>
</svg>
